<svg id="Layer_1" enable-background="new 0 0 512 512" height="512" viewBox="0 0 512 512" width="512" xmlns="http://www.w3.org/2000/svg"><g><path d="m482 26h-452c-16.542 0-30 13.458-30 30v400c0 16.542 13.458 30 30 30h452c16.542 0 30-13.458 30-30v-400c0-16.542-13.458-30-30-30zm-462 30c0-5.514 4.486-10 10-10h452c5.514 0 10 4.486 10 10v149.997h-472zm472 400c0 5.514-4.486 10-10 10h-452c-5.514 0-10-4.486-10-10v-230.003h472z"/><path d="m66 345.997h2.223v90.001c0 5.522 4.478 10 10 10s10-4.478 10-10v-90.001h2.222c11.028 0 20-8.972 20-20v-40c0-11.028-8.972-20-20-20h-2.222v-.001-9.998c0-5.522-4.478-10-10-10s-10 4.478-10 10v9.998.001h-2.223c-11.028 0-20 8.972-20 20v40c0 11.028 8.972 20 20 20zm24.444-60v40h-24.444l-.002-40z"/><path d="m154.889 385.998h2.223v.001 49.999c0 5.522 4.478 10 10 10s10-4.478 10-10v-49.999-.001h2.223c11.027 0 19.999-8.972 19.999-20v-40c0-11.028-8.972-20-19.999-20h-2.223v-50c0-5.522-4.478-10-10-10s-10 4.478-10 10v50h-2.223c-11.028 0-20 8.972-20 20v40c0 11.028 8.971 20 20 20zm24.444-60 .001 40h-24.445l-.002-40z"/><path d="m243.777 345.997h2.223v90.001c0 5.522 4.478 10 10 10s10-4.478 10-10v-90.001h2.223c11.027 0 19.999-8.972 19.999-20v-40c0-11.028-8.972-20-19.999-20h-2.223v-.001-9.998c0-5.522-4.478-10-10-10s-10 4.478-10 10v9.998.001h-2.223c-11.028 0-20 8.972-20 20v40c0 11.028 8.972 20 20 20zm24.445-60 .001 40h-24.445l-.002-40z"/><path d="m332.666 426h2.223v9.998c0 5.522 4.478 10 10 10s10-4.478 10-10v-9.998h2.223c11.028 0 20-8.972 20-20v-40c0-11.028-8.972-20.001-20-20.001h-2.223v-90.001c0-5.522-4.478-10-10-10s-10 4.478-10 10v90.001h-2.223c-11.027 0-19.999 8.973-19.999 20.001v40c0 11.028 8.972 20 19.999 20zm0-60.001 24.445.001v40h-24.444l-.003-40.001z"/><path d="m421.556 385.998h2.222v.001 49.999c0 5.522 4.478 10 10 10s10-4.478 10-10v-49.999-.001h2.222c11.028 0 20-8.972 20-20v-40c0-11.028-8.972-20-20-20h-2.223v-50c0-5.522-4.478-10-10-10s-10 4.478-10 10v50h-2.222c-11.028 0-20 8.972-20 20v40c.001 11.028 8.972 20 20.001 20zm24.444-60v40h-24.444l-.002-40z"/><path d="m436 66.001h-160c-16.542 0-30 13.458-30 30v59.995c0 16.542 13.458 29.999 30 29.999h160c16.542 0 30-13.457 30-29.999v-59.995c0-16.542-13.458-30-30-30zm10 89.995c0 5.514-4.486 9.999-10 9.999h-160c-5.514 0-10-4.485-10-9.999v-59.995c0-5.514 4.486-10 10-10h160c5.514 0 10 4.486 10 10z"/><path d="m123.222 98.501c0-12.392-10.107-22.5-22.5-22.5-12.392 0-22.5 10.108-22.5 22.5 0 12.393 10.108 22.5 22.5 22.5 12.393 0 22.5-10.108 22.5-22.5z"/><path d="m208.223 98.501c0-12.392-10.107-22.5-22.5-22.5s-22.5 10.108-22.5 22.5c0 12.393 10.108 22.5 22.5 22.5s22.5-10.108 22.5-22.5z"/><path d="m83.224 155.994h-.007c-5.522 0-9.997 4.478-9.997 10s4.481 10 10.004 10 10-4.478 10-10-4.478-10-10-10z"/><path d="m123.226 155.994h-.008c-5.522 0-9.996 4.478-9.996 10s4.481 10 10.004 10 10-4.478 10-10-4.478-10-10-10z"/><path d="m163.227 155.994h-.007c-5.522 0-9.997 4.478-9.997 10s4.481 10 10.004 10 10-4.478 10-10-4.478-10-10-10z"/><path d="m203.229 155.994h-.008c-5.522 0-9.996 4.478-9.996 10s4.481 10 10.004 10 10-4.478 10-10-4.478-10-10-10z"/></g></svg>