<svg height="499pt" viewBox="-43 0 499 499.998" width="499pt" xmlns="http://www.w3.org/2000/svg"><path d="m6.75 6.253906h399.996094v487.496094h-399.996094zm0 0" fill="#59c3f0"/><path d="m381.742188 6.253906h25.003906v487.476563h-25.003906zm0 0" fill="#21a0d6"/><path d="m6.746094 6.253906h25.003906v487.476563h-25.003906zm0 0" fill="#96dcfa"/><path d="m6.75 100.003906h399.996094v300h-399.996094zm0 0" fill="#fff"/><path d="m381.742188 100.003906h25.003906v300h-25.003906zm0 0" fill="#e6e7e8"/><path d="m6.746094 100.003906h25.003906v300h-25.003906zm0 0" fill="#e6e7e8"/><path d="m296.023438 105.558594c-19.527344 19.527344-19.527344 51.183594 0 70.710937l-44.191407 44.191407 35.351563 35.351562s79.535156-79.527344 79.550781-79.542969c19.523437-19.527343 19.523437-51.183593 0-70.710937-19.527344-19.527344-51.183594-19.527344-70.710937 0zm44.195312 44.195312c-4.882812 4.878906-12.800781 4.878906-17.683594 0-4.878906-4.882812-4.878906-12.800781 0-17.683594 4.882813-4.878906 12.800782-4.878906 17.683594 0 4.878906 4.886719 4.878906 12.800782 0 17.683594zm0 0" fill="#f05458"/><path d="m366.734375 105.574219c-12.945313-12.941407-31.214844-17.292969-47.75-13.082031 8.410156 2.144531 16.375 6.5 22.957031 13.082031 19.527344 19.527343 19.527344 51.1875 0 70.710937 0 0-44.792968 44.792969-67.152344 67.152344l12.398438 12.394531s79.53125-79.527343 79.546875-79.546875c19.523437-19.523437 19.523437-51.183594 0-70.710937zm0 0" fill="#d9383c"/><path d="m119.25 353.042969c19.523438 19.523437 51.183594 19.523437 70.707031 0l97.226563-97.230469-35.351563-35.351562zm0 0" fill="#e6e7e8"/><path d="m366.734375 394.441406c19.523437-19.527344 19.523437-51.183594 0-70.710937-.015625-.015625-79.550781-79.546875-79.550781-79.546875l-35.351563 35.355468 44.191407 44.191407c-19.527344 19.527343-19.527344 51.183593 0 70.710937 19.527343 19.523438 51.183593 19.523438 70.710937 0zm-26.515625-26.515625c-4.882812 4.882813-12.800781 4.882813-17.683594 0-4.878906-4.882812-4.878906-12.796875 0-17.679687 4.882813-4.882813 12.800782-4.882813 17.683594 0 4.878906 4.882812 4.878906 12.796875 0 17.679687zm0 0" fill="#f05458"/><path d="m366.734375 394.449219c-12.945313 12.941406-31.214844 17.292969-47.75 13.082031 8.410156-2.144531 16.375-6.5 22.957031-13.082031 19.527344-19.527344 19.527344-51.183594 0-70.710938-.011718-.011719-44.792968-44.792969-67.152344-67.148437l12.398438-12.398438s79.53125 79.527344 79.546875 79.546875c19.523437 19.527344 19.523437 51.183594 0 70.710938zm0 0" fill="#d9383c"/><path d="m119.25 146.957031c19.523438-19.527343 51.183594-19.527343 70.707031 0l97.226563 97.226563-35.351563 35.355468zm0 0" fill="#e6e7e8"/><path d="m291.8125 250.011719c0 18.847656-15.277344 34.125-34.125 34.125-18.84375 0-34.121094-15.277344-34.121094-34.125 0-18.847657 15.277344-34.125 34.121094-34.125 18.847656 0 34.125 15.277343 34.125 34.125zm0 0" fill="#fcd64b"/><path d="m257.6875 215.90625c-2.902344 0-5.714844.363281-8.40625 1.046875 14.78125 3.746094 25.714844 17.132813 25.714844 33.074219 0 15.945312-10.9375 29.332031-25.714844 33.078125 2.691406.679687 5.503906 1.042969 8.40625 1.042969 18.847656 0 34.125-15.277344 34.125-34.121094 0-18.847656-15.277344-34.121094-34.125-34.121094zm0 0" fill="#f5ab33"/><path d="m257.6875 284.152344c2.902344 0 5.71875-.363282 8.410156-1.042969-14.78125-3.746094-25.714844-17.132813-25.714844-33.078125 0-15.941406 10.9375-29.332031 25.714844-33.078125-2.691406-.679687-5.507812-1.046875-8.410156-1.046875-18.84375 0-34.121094 15.28125-34.121094 34.125s15.277344 34.121094 34.121094 34.121094zm0 0" fill="#ffeca6"/><path d="m94.25 6.25h224.996094v56.242188h-224.996094zm0 0" fill="#fff"/><path d="m294.246094 6.25h25v56.242188h-25zm0 0" fill="#e6e7e8"/><path d="m94.246094 6.25h25v56.242188h-25zm0 0" fill="#e6e7e8"/><path d="m94.25 437.492188h224.996094v56.242187h-224.996094zm0 0" fill="#fff"/><path d="m294.25 437.492188h25v56.242187h-25zm0 0" fill="#e6e7e8"/><path d="m94.246094 437.492188h25v56.242187h-25zm0 0" fill="#e6e7e8"/><g fill="#402943"><path d="m406.746094.00390625h-87.46875c-.011719 0-.019532-.00390625-.03125-.00390625h-224.996094c-.011719 0-.019531.00390625-.03125.00390625h-87.46875c-3.449219 0-6.25 2.79687475-6.25 6.24999975v243.742188.015625.015625 243.71875c0 3.453125 2.800781 6.25 6.25 6.25h399.996094c3.449218 0 6.25-2.796875 6.25-6.25v-487.492188c0-3.453125-2.800782-6.24999975-6.25-6.24999975zm-393.746094 256.26171875h18.75c2.367188 0 4.53125-1.339844 5.589844-3.457031l18.589844-37.179688 32.464843 86.578125c.871094 2.328125 3.042969 3.917969 5.523438 4.046875.109375.007813.222656.011719.332031.011719 2.355469 0 4.523438-1.332031 5.585938-3.457031l23.277343-46.542969h46.132813c3.453125 0 6.25-2.800781 6.25-6.25 0-3.453125-2.796875-6.25-6.25-6.25h-49.996094c-2.367188 0-4.53125 1.335937-5.589844 3.453125l-18.59375 37.179688-32.464844-86.578126c-.871093-2.328124-3.042968-3.917968-5.523437-4.046874-2.496094-.132813-4.808594 1.222656-5.917969 3.445312l-23.273437 46.546875h-14.886719v-137.511719h274.085938c-7.746094 9.855469-11.957032 21.929688-11.957032 34.65625 0 12.921875 4.324219 25.179688 12.292969 35.117188l-29.777344 29.777344-63.269531-63.269532c-21.933594-21.929687-57.617188-21.929687-79.546875 0-1.171875 1.171875-1.832031 2.761719-1.832031 4.417969 0 1.660156.660156 3.25 1.832031 4.421875l98.625 98.625-98.625 98.625c-1.171875 1.171875-1.828125 2.761719-1.828125 4.417969s.65625 3.246093 1.828125 4.417969c10.96875 10.96875 25.371094 16.449218 39.773437 16.449218 14.40625 0 28.808594-5.480468 39.777344-16.449218l63.269532-63.269532 29.777343 29.78125c-7.96875 9.933594-12.296875 22.191406-12.296875 35.113282 0 12.730468 4.214844 24.808593 11.964844 34.664062h-274.09375zm349.316406-146.289063c17.054688 17.058594 17.054688 44.8125 0 61.871094v.003906c-1.085937 1.078126-8.753906 8.746094-66.097656 66.089844-3.957031-12.597656-13.933594-22.558594-26.542969-26.488281l30.765625-30.765625c2.445313-2.441406 2.445313-6.398438 0-8.839844-17.054687-17.058594-17.054687-44.8125 0-61.871094 17.058594-17.058593 44.816406-17.054687 61.875 0zm-128.390625 107.46875-57.226562-57.230468c-2.441407-2.441406-6.398438-2.441406-8.839844 0s-2.441406 6.398437 0 8.839844l57.234375 57.234374c-2.574219 3.523438-4.625 7.457032-5.957031 11.71875l-90.734375-90.738281c17.121094-12.820312 41.578125-11.453125 57.136718 4.105469l60.101563 60.101562c-4.257813 1.335938-8.191406 3.390626-11.714844 5.96875zm-8.84375 56.277344-57.226562 57.222656c-2.4375 2.4375-2.4375 6.398438 0 8.835938 1.222656 1.222656 2.820312 1.832031 4.421875 1.832031 1.601562 0 3.199218-.609375 4.417968-1.832031l57.214844-57.214844c3.523438 2.582032 7.453125 4.636719 11.710938 5.972656l-60.082032 60.085938c-15.558593 15.554688-40.015624 16.921875-57.136718 4.101562l90.730468-90.726562c1.328126 4.261719 3.375 8.195312 5.949219 11.722656zm32.605469 4.164063c-15.367188 0-27.871094-12.503907-27.871094-27.875 0-15.367188 12.503906-27.871094 27.871094-27.871094 15.371094 0 27.875 12.503906 27.875 27.871094 0 15.371093-12.503906 27.875-27.875 27.875zm42.753906 112.136719c-17.054687-17.0625-17.054687-44.816407 0-61.875 2.445313-2.4375 2.445313-6.394532 0-8.835938l-30.746094-30.75c12.609376-3.933594 22.578126-13.898438 26.527344-26.5 57.339844 57.335938 65.007813 65.007812 66.09375 66.085938v.003906c17.054688 17.058594 17.054688 44.8125 0 61.871094-8.265625 8.261718-19.25 12.816406-30.9375 12.816406-11.6875-.003906-22.671875-4.554688-30.9375-12.816406zm70.707032-70.714844s-.003907-.003906-.011719-.011719c-.683594-.679687-47.980469-47.976563-69.300781-69.296875 21.320312-21.320312 68.609374-68.609375 69.300781-69.300781l.015625-.011719c20.300781-20.304688 21.792968-52.382812 4.507812-74.433594h24.832032v137.496094h-18.746094c-3.449219 0-6.25 2.796875-6.25 6.25s2.800781 6.25 6.25 6.25h18.75v137.503906h-24.835938c17.285156-22.054687 15.792969-54.140625-4.511718-74.445312zm-270.648438-306.804688h212.496094v43.738282h-212.496094zm-12.5 0v49.988282c0 3.453124 2.796875 6.25 6.25 6.25h224.996094c3.453125 0 6.25-2.796876 6.25-6.25v-49.988282h75v81.25h-38.464844c-18.5625-12.074218-42.742188-12.074218-61.304688 0h-287.726562v-81.25zm12.5 474.980469v-43.746094h212.496094v43.746094zm224.996094.015625v-50.007812c0-3.453126-2.796875-6.25-6.25-6.25h-224.996094c-3.453125 0-6.25 2.796874-6.25 6.25v50.007812h-75v-81.246094h287.71875c9.042969 5.902344 19.605469 9.082032 30.660156 9.082032 11.054688 0 21.617188-3.179688 30.660156-9.082032h38.457032v81.246094zm0 0"/><path d="m356.746094 243.75h-24.996094c-3.453125 0-6.25 2.796875-6.25 6.25s2.796875 6.25 6.25 6.25h24.996094c3.453125 0 6.25-2.796875 6.25-6.25s-2.796875-6.25-6.25-6.25zm0 0"/><path d="m318.117188 127.652344c-3.539063 3.542968-5.492188 8.25-5.492188 13.257812 0 5.011719 1.949219 9.71875 5.492188 13.261719 3.65625 3.65625 8.457031 5.484375 13.261718 5.484375 4.800782 0 9.601563-1.828125 13.257813-5.484375 7.308593-7.308594 7.308593-19.207031 0-26.519531-3.542969-3.539063-8.25-5.492188-13.257813-5.492188-5.011718 0-9.71875 1.953125-13.261718 5.492188zm17.683593 17.683594c-2.363281 2.355468-6.480469 2.355468-8.839843 0-1.183594-1.183594-1.832032-2.753907-1.832032-4.425782 0-1.667968.648438-3.238281 1.832032-4.417968 1.21875-1.21875 2.816406-1.828126 4.417968-1.828126 1.601563 0 3.203125.609376 4.421875 1.828126 2.433594 2.4375 2.433594 6.402343 0 8.84375zm0 0"/><path d="m344.636719 372.34375c7.3125-7.308594 7.3125-19.207031 0-26.519531-7.308594-7.308594-19.207031-7.308594-26.515625 0-3.542969 3.542969-5.492188 8.25-5.492188 13.261719 0 5.007812 1.949219 9.714843 5.492188 13.257812 3.539062 3.542969 8.246094 5.492188 13.257812 5.492188 5.011719 0 9.714844-1.949219 13.257813-5.492188zm-17.679688-8.835938c-1.183593-1.183593-1.828125-2.753906-1.828125-4.421874 0-1.671876.648438-3.238282 1.828125-4.421876 1.179688-1.179687 2.753907-1.828124 4.421875-1.828124 1.667969 0 3.238282.648437 4.417969 1.828124 2.4375 2.4375 2.4375 6.402344 0 8.84375-2.4375 2.433594-6.402344 2.433594-8.839844 0zm0 0"/></g></svg>