<?xml version="1.0" encoding="iso-8859-1"?>
<!-- Generator: Adobe Illustrator 19.0.0, SVG Export Plug-In . SVG Version: 6.00 Build 0)  -->
<svg version="1.1" id="Capa_1" xmlns="http://www.w3.org/2000/svg" xmlns:xlink="http://www.w3.org/1999/xlink" x="0px" y="0px"
	 viewBox="0 0 512 512" style="enable-background:new 0 0 512 512;" xml:space="preserve">
<path style="fill:#B39A7C;" d="M504.5,77.64v356.72c0,38.74-31.4,70.14-70.14,70.14H77.64c-17.3,0-33.14-6.26-45.37-16.65
	C17.12,474.98,7.5,455.79,7.5,434.36V77.64C7.5,38.9,38.9,7.5,77.64,7.5h356.72c18.3,0,34.96,7.01,47.45,18.48
	C495.76,38.8,504.5,57.2,504.5,77.64z"/>
<path style="fill:#957755;" d="M504.5,77.64v356.72c0,38.74-31.4,70.14-70.14,70.14h-13.3V92.56H7.5V77.64
	C7.5,38.9,38.9,7.5,77.64,7.5h356.72c18.3,0,34.96,7.01,47.45,18.48C495.76,38.8,504.5,57.2,504.5,77.64z"/>
<path style="fill:#C60024;" d="M379.04,92.57c0,16.63-13.48,30.11-30.12,30.11c-4.09,0-7.98-0.81-11.53-2.3
	c-10.91-4.51-18.58-15.27-18.58-27.81c0-12.55,7.67-23.31,18.58-27.82c3.55-1.49,7.44-2.3,11.53-2.3
	C365.56,62.45,379.04,75.93,379.04,92.57z"/>
<g>
	<path style="fill:#3E3D43;" d="M318.805,92.566c0-4.667,1.062-9.086,2.957-13.029H63.982c-7.196,0-13.029,5.833-13.029,13.029
		s5.833,13.029,13.029,13.029h257.781C319.868,101.652,318.805,97.233,318.805,92.566z"/>
	<path style="fill:#3E3D43;" d="M448.018,79.537h-71.935c1.895,3.943,2.957,8.362,2.957,13.029s-1.062,9.086-2.957,13.029h71.935
		c7.196,0,13.029-5.833,13.029-13.029S455.214,79.537,448.018,79.537z"/>
</g>
<path style="fill:#FECE00;" d="M211.72,201.52c0,16.64-13.48,30.12-30.12,30.12c-0.57,0-1.14-0.02-1.71-0.05
	c-3.47-0.19-6.77-0.97-9.83-2.24h-0.01c-10.9-4.53-18.57-15.28-18.57-27.83s7.67-23.3,18.58-27.82h0.01
	c3.05-1.27,6.36-2.05,9.82-2.25c0.57-0.03,1.14-0.05,1.71-0.05C198.24,171.4,211.72,184.89,211.72,201.52z"/>
<g>
	<path style="fill:#3E3D43;" d="M151.484,201.522c0-4.667,1.062-9.086,2.957-13.029H63.982c-7.196,0-13.029,5.833-13.029,13.029l0,0
		c0,7.196,5.833,13.029,13.029,13.029h90.459C152.546,210.608,151.484,206.189,151.484,201.522z"/>
	<path style="fill:#3E3D43;" d="M448.018,188.493H208.762c1.895,3.943,2.957,8.362,2.957,13.029s-1.062,9.086-2.957,13.029h239.256
		c7.196,0,13.029-5.833,13.029-13.029l0,0C461.047,194.326,455.214,188.493,448.018,188.493z"/>
</g>
<path style="fill:#005ECF;" d="M461.05,311.4c0,16.63-13.49,30.11-30.12,30.11c-4.09,0-7.99-0.82-11.54-2.3
	c-10.91-4.52-18.58-15.27-18.58-27.81c0-12.55,7.67-23.3,18.58-27.82c3.55-1.48,7.45-2.3,11.54-2.3
	C447.56,281.28,461.05,294.76,461.05,311.4z"/>
<g>
	<path style="fill:#3E3D43;" d="M400.812,311.397c0-5.035,1.242-9.777,3.426-13.948H63.982c-7.196,0-13.029,5.833-13.029,13.029l0,0
		c0,7.196,5.833,13.029,13.029,13.029h339.372C401.723,319.8,400.812,315.706,400.812,311.397z"/>
	<path style="fill:#3E3D43;" d="M460.93,308.816c0.055,0.65,0.089,1.307,0.102,1.968c0.002-0.103,0.016-0.203,0.016-0.306l0,0
		C461.047,309.914,460.999,309.362,460.93,308.816z"/>
</g>
<path style="fill:#C71468;" d="M297.3,419.43c0,16.64-13.49,30.12-30.12,30.12c-4.09,0-7.99-0.81-11.54-2.3
	c-10.91-4.52-18.58-15.27-18.58-27.82c0-12.54,7.67-23.29,18.58-27.81c3.55-1.49,7.45-2.3,11.54-2.3
	C283.81,389.32,297.3,402.8,297.3,419.43z"/>
<path style="fill:#FE0B37;" d="M355.96,92.57c0,12.54-7.67,23.29-18.57,27.81c-10.91-4.51-18.58-15.27-18.58-27.81
	c0-12.55,7.67-23.31,18.58-27.82C348.29,69.27,355.96,80.02,355.96,92.57z"/>
<path style="fill:#FEDA44;" d="M188.64,201.52c0,12.55-7.67,23.31-18.58,27.83h-0.01c-10.9-4.53-18.57-15.28-18.57-27.83
	s7.67-23.3,18.58-27.82h0.01C180.97,178.22,188.64,188.98,188.64,201.52z"/>
<path style="fill:#2487FF;" d="M437.97,311.4c0,12.54-7.67,23.29-18.58,27.81c-10.91-4.52-18.58-15.27-18.58-27.81
	c0-12.55,7.67-23.3,18.58-27.82C430.3,288.1,437.97,298.85,437.97,311.4z"/>
<path style="fill:#EB358A;" d="M274.22,419.43c0,12.55-7.67,23.3-18.58,27.82c-10.91-4.52-18.58-15.27-18.58-27.82
	c0-12.54,7.67-23.29,18.58-27.81C266.55,396.14,274.22,406.89,274.22,419.43z"/>
<g>
	<path style="fill:#3E3D43;" d="M237.063,419.434c0-4.667,1.062-9.086,2.957-13.029H63.982c-7.196,0-13.029,5.833-13.029,13.029
		c0,7.196,5.833,13.029,13.029,13.029H240.02C238.125,428.52,237.063,424.101,237.063,419.434z"/>
	<path style="fill:#3E3D43;" d="M448.018,406.405H294.341c1.895,3.943,2.957,8.362,2.957,13.029s-1.062,9.086-2.957,13.029h153.677
		c7.196,0,13.029-5.833,13.029-13.029S455.214,406.405,448.018,406.405z"/>
</g>
<path style="fill:#020202;" d="M486.881,20.461C472.523,7.267,453.871,0,434.358,0H77.642C34.83,0,0,34.83,0,77.642v356.717
	c0,22.835,9.992,44.416,27.414,59.208C41.414,505.454,59.251,512,77.642,512h356.717C477.17,512,512,477.17,512,434.358V77.642
	C512,55.972,502.844,35.13,486.881,20.461z M497,434.358c0,34.54-28.101,62.642-62.642,62.642H77.642
	c-14.837,0-29.228-5.28-40.519-14.868C23.063,470.195,15,452.782,15,434.358V77.642C15,43.101,43.101,15,77.642,15h356.717
	c15.743,0,30.79,5.862,42.373,16.506C489.612,43.343,497,60.159,497,77.642V434.358z"/>
<g>
	<path style="fill:#FFFFFF;" d="M434.358,472H380.31v15h54.049c9.706,0,19.198-2.675,27.451-7.737l-7.842-12.787
		C448.075,470.09,441.294,472,434.358,472z"/>
	<rect x="168.84" y="472" style="fill:#FFFFFF;" width="16.267" height="15"/>
	<path style="fill:#FFFFFF;" d="M53.303,463.075c-3.673-3.118-6.674-6.847-8.921-11.081l-13.25,7.03
		c3.142,5.921,7.335,11.131,12.463,15.485C53.081,482.565,65.173,487,77.642,487h67.541v-15H77.642
		C68.726,472,60.081,468.831,53.303,463.075z"/>
	<rect x="182.15" y="25" style="fill:#FFFFFF;" width="18.731" height="15"/>
	<path style="fill:#FFFFFF;" d="M469.965,38.869C460.233,29.925,447.588,25,434.358,25H221.587v15h212.772
		c9.46,0,18.5,3.521,25.457,9.914c1.494,1.373,2.881,2.861,4.122,4.422l11.742-9.334C473.955,42.832,472.032,40.768,469.965,38.869z
		"/>
</g>
<g>
	<path style="fill:#020202;" d="M448.019,72.037h-67.597c-6.722-10.278-18.327-17.088-31.498-17.088
		c-13.172,0-24.776,6.81-31.498,17.088H63.981c-11.32,0-20.529,9.209-20.529,20.529s9.209,20.529,20.529,20.529h253.443
		c6.722,10.279,18.326,17.089,31.498,17.089s24.776-6.81,31.499-17.089h67.597c11.32,0,20.529-9.209,20.529-20.529
		S459.338,72.037,448.019,72.037z M311.706,98.095H63.981c-3.049,0-5.529-2.48-5.529-5.529c0-3.049,2.48-5.529,5.529-5.529h247.724
		c-0.025,0.171-0.034,0.346-0.057,0.518c-0.08,0.6-0.147,1.203-0.198,1.811c-0.021,0.252-0.042,0.504-0.058,0.758
		c-0.052,0.809-0.088,1.622-0.088,2.443c0,0.822,0.036,1.635,0.088,2.443c0.016,0.253,0.037,0.504,0.058,0.756
		c0.052,0.609,0.118,1.214,0.199,1.815C311.672,97.752,311.681,97.925,311.706,98.095z M327.346,99.352
		c-0.011-0.036-0.023-0.073-0.035-0.109c-0.097-0.313-0.186-0.629-0.27-0.948c-0.015-0.058-0.03-0.115-0.044-0.173
		c-0.077-0.303-0.148-0.609-0.212-0.917c-0.017-0.082-0.032-0.164-0.049-0.246c-0.057-0.288-0.11-0.578-0.156-0.87
		c-0.019-0.118-0.033-0.238-0.05-0.356c-0.037-0.261-0.072-0.522-0.1-0.785c-0.019-0.186-0.032-0.374-0.046-0.561
		c-0.016-0.203-0.036-0.406-0.047-0.611c-0.021-0.401-0.033-0.803-0.033-1.208s0.012-0.807,0.033-1.208
		c0.011-0.205,0.03-0.408,0.047-0.611c0.015-0.187,0.027-0.374,0.046-0.561c0.028-0.264,0.063-0.525,0.1-0.786
		c0.016-0.118,0.031-0.237,0.049-0.355c0.046-0.293,0.099-0.583,0.156-0.871c0.016-0.082,0.031-0.164,0.048-0.245
		c0.065-0.309,0.136-0.616,0.213-0.92c0.014-0.056,0.029-0.113,0.043-0.169c0.084-0.32,0.174-0.638,0.271-0.953
		c0.01-0.034,0.022-0.068,0.032-0.101c2.887-9.169,11.468-15.837,21.578-15.837c10.11,0,18.691,6.669,21.579,15.837
		c0.011,0.034,0.022,0.067,0.032,0.101c0.098,0.315,0.187,0.632,0.271,0.953c0.015,0.056,0.029,0.113,0.044,0.169
		c0.077,0.304,0.148,0.611,0.213,0.92c0.017,0.081,0.032,0.163,0.048,0.245c0.057,0.288,0.11,0.579,0.156,0.871
		c0.018,0.118,0.033,0.237,0.049,0.355c0.037,0.261,0.073,0.522,0.1,0.786c0.019,0.186,0.032,0.374,0.046,0.561
		c0.016,0.204,0.036,0.406,0.047,0.611c0.021,0.401,0.033,0.803,0.033,1.208s-0.012,0.807-0.033,1.208
		c-0.011,0.205-0.03,0.407-0.047,0.611c-0.015,0.187-0.027,0.375-0.046,0.561c-0.028,0.263-0.063,0.524-0.1,0.785
		c-0.016,0.119-0.031,0.238-0.05,0.356c-0.046,0.292-0.099,0.582-0.156,0.87c-0.016,0.082-0.032,0.164-0.049,0.246
		c-0.064,0.308-0.135,0.614-0.212,0.917c-0.015,0.058-0.029,0.115-0.044,0.173c-0.083,0.319-0.173,0.635-0.27,0.948
		c-0.011,0.036-0.023,0.073-0.035,0.109c-2.889,9.166-11.469,15.832-21.577,15.832C338.815,115.184,330.235,108.518,327.346,99.352z
		 M448.019,98.095h-61.878c0.025-0.171,0.034-0.345,0.056-0.517c0.08-0.6,0.147-1.204,0.198-1.812
		c0.021-0.252,0.042-0.504,0.058-0.758c0.052-0.808,0.088-1.621,0.088-2.442s-0.036-1.634-0.088-2.442
		c-0.016-0.254-0.037-0.507-0.058-0.759c-0.051-0.607-0.118-1.209-0.198-1.808c-0.023-0.173-0.032-0.348-0.057-0.52h61.878
		c3.048,0,5.529,2.48,5.529,5.529S451.067,98.095,448.019,98.095z"/>
	<path style="fill:#020202;" d="M448.019,180.993H213.1c-6.722-10.279-18.326-17.089-31.498-17.089s-24.776,6.81-31.498,17.089
		H63.981c-11.32,0-20.529,9.209-20.529,20.529s9.209,20.529,20.529,20.529h86.122c6.722,10.279,18.326,17.089,31.498,17.089
		s24.776-6.81,31.498-17.089h234.919c11.32,0,20.529-9.209,20.529-20.529C468.547,190.202,459.338,180.993,448.019,180.993z
		 M144.384,207.051H63.981c-3.049,0-5.529-2.48-5.529-5.529c0-3.049,2.48-5.529,5.529-5.529h80.403
		c-0.025,0.17-0.034,0.344-0.056,0.515c-0.08,0.6-0.147,1.205-0.198,1.814c-0.021,0.252-0.042,0.504-0.058,0.757
		c-0.052,0.809-0.088,1.621-0.088,2.443c0,0.822,0.036,1.634,0.088,2.443c0.016,0.253,0.037,0.505,0.058,0.757
		c0.052,0.609,0.118,1.214,0.198,1.814C144.351,206.707,144.359,206.881,144.384,207.051z M160.016,208.281
		c-0.007-0.022-0.014-0.044-0.021-0.067c-0.1-0.324-0.193-0.651-0.279-0.981c-0.012-0.046-0.024-0.092-0.036-0.139
		c-0.08-0.313-0.153-0.628-0.219-0.946c-0.015-0.072-0.028-0.144-0.043-0.217c-0.059-0.297-0.113-0.595-0.16-0.896
		c-0.017-0.109-0.031-0.22-0.046-0.329c-0.038-0.269-0.074-0.537-0.103-0.809c-0.019-0.181-0.031-0.363-0.045-0.544
		c-0.017-0.208-0.037-0.415-0.048-0.625c-0.021-0.401-0.033-0.803-0.033-1.208s0.012-0.807,0.033-1.208
		c0.011-0.206,0.031-0.41,0.047-0.614c0.015-0.186,0.027-0.373,0.046-0.558c0.028-0.266,0.064-0.529,0.101-0.792
		c0.016-0.116,0.03-0.232,0.048-0.347c0.046-0.295,0.1-0.588,0.158-0.88c0.015-0.079,0.03-0.157,0.046-0.235
		c0.065-0.312,0.137-0.621,0.215-0.928c0.013-0.053,0.027-0.106,0.041-0.159c0.085-0.324,0.175-0.645,0.274-0.962
		c0.009-0.03,0.019-0.06,0.028-0.089c2.885-9.173,11.468-15.845,21.581-15.845c10.11,0,18.691,6.669,21.578,15.837
		c0.011,0.034,0.022,0.068,0.032,0.101c0.098,0.315,0.187,0.633,0.271,0.953c0.015,0.056,0.029,0.113,0.043,0.169
		c0.077,0.304,0.148,0.611,0.213,0.92c0.017,0.081,0.032,0.163,0.048,0.245c0.057,0.289,0.11,0.579,0.156,0.871
		c0.018,0.118,0.033,0.237,0.049,0.355c0.037,0.261,0.072,0.522,0.1,0.786c0.019,0.186,0.032,0.374,0.046,0.561
		c0.016,0.204,0.036,0.406,0.047,0.611c0.021,0.401,0.033,0.803,0.033,1.208s-0.012,0.807-0.033,1.208
		c-0.011,0.207-0.031,0.412-0.047,0.618c-0.015,0.184-0.027,0.369-0.046,0.552c-0.028,0.267-0.064,0.532-0.101,0.796
		c-0.016,0.115-0.03,0.23-0.048,0.344c-0.046,0.296-0.1,0.589-0.158,0.881c-0.015,0.078-0.03,0.157-0.046,0.235
		c-0.065,0.312-0.137,0.622-0.215,0.929c-0.013,0.052-0.027,0.105-0.04,0.157c-0.085,0.325-0.176,0.647-0.275,0.965
		c-0.009,0.028-0.018,0.056-0.027,0.084c-2.884,9.174-11.468,15.848-21.582,15.848C171.484,224.14,162.897,217.461,160.016,208.281z
		 M448.019,207.051h-229.2c0.025-0.17,0.034-0.344,0.056-0.514c0.081-0.601,0.147-1.206,0.199-1.815
		c0.021-0.252,0.042-0.503,0.058-0.756c0.052-0.809,0.088-1.622,0.088-2.443c0-0.822-0.036-1.635-0.088-2.443
		c-0.016-0.253-0.037-0.505-0.058-0.757c-0.052-0.609-0.118-1.214-0.198-1.814c-0.023-0.171-0.031-0.344-0.056-0.515h229.2
		c3.048,0,5.529,2.48,5.529,5.529C453.547,204.571,451.067,207.051,448.019,207.051z"/>
	<path style="fill:#020202;" d="M430.93,273.779c-12.776,0-24.077,6.407-30.879,16.17H63.981c-11.32,0-20.529,9.209-20.529,20.529
		c0,11.32,9.209,20.529,20.529,20.529h334.861c6.62,10.792,18.526,18.007,32.088,18.007c20.743,0,37.618-16.875,37.618-37.618
		C468.547,290.654,451.672,273.779,430.93,273.779z M393.592,316.007H63.981c-3.049,0-5.529-2.48-5.529-5.529
		c0-3.049,2.48-5.529,5.529-5.529h329.89c-0.01,0.058-0.017,0.117-0.027,0.174c-0.064,0.38-0.122,0.761-0.174,1.144
		c-0.03,0.218-0.057,0.437-0.084,0.656c-0.04,0.331-0.078,0.663-0.108,0.997c-0.029,0.312-0.05,0.624-0.071,0.936
		c-0.017,0.258-0.039,0.515-0.051,0.775c-0.028,0.588-0.045,1.176-0.045,1.765c0,0.717,0.025,1.428,0.064,2.135
		c0.014,0.245,0.037,0.488,0.056,0.732c0.035,0.464,0.075,0.926,0.127,1.385C393.572,315.768,393.577,315.888,393.592,316.007z
		 M430.93,334.014c-9.303,0-17.311-5.648-20.779-13.694c-0.074-0.171-0.142-0.343-0.211-0.516c-0.071-0.177-0.144-0.354-0.211-0.534
		c-0.065-0.175-0.124-0.352-0.185-0.528c-0.064-0.184-0.129-0.368-0.188-0.554c-0.05-0.158-0.093-0.318-0.14-0.477
		c-0.061-0.209-0.124-0.417-0.179-0.628c-0.033-0.127-0.06-0.256-0.091-0.384c-0.059-0.243-0.118-0.485-0.169-0.731
		c-0.02-0.096-0.034-0.193-0.053-0.289c-0.053-0.278-0.107-0.555-0.15-0.836c-0.01-0.067-0.016-0.134-0.026-0.201
		c-0.045-0.31-0.087-0.62-0.119-0.933c-0.008-0.077-0.011-0.156-0.018-0.233c-0.028-0.303-0.054-0.608-0.07-0.914
		c-0.02-0.387-0.03-0.775-0.03-1.165c0-0.423,0.014-0.844,0.037-1.263c0.01-0.175,0.026-0.348,0.04-0.522
		c0.018-0.235,0.037-0.47,0.063-0.703c0.024-0.22,0.053-0.438,0.084-0.656c0.025-0.179,0.052-0.358,0.081-0.536
		c0.04-0.243,0.082-0.484,0.13-0.724c0.029-0.145,0.061-0.288,0.092-0.432c0.057-0.26,0.114-0.52,0.18-0.777
		c0.023-0.091,0.051-0.181,0.075-0.271c0.138-0.512,0.295-1.016,0.467-1.512c0.048-0.139,0.093-0.279,0.144-0.417
		c0.074-0.199,0.155-0.395,0.234-0.592c0.079-0.196,0.158-0.391,0.243-0.585c0.076-0.176,0.156-0.35,0.237-0.524
		c0.1-0.215,0.205-0.428,0.312-0.641c3.727-7.384,11.38-12.462,20.2-12.462c12.471,0,22.618,10.146,22.618,22.618
		C453.547,323.868,443.401,334.014,430.93,334.014z"/>
	<path style="fill:#020202;" d="M448.019,398.905h-149.34c-6.722-10.279-18.327-17.089-31.498-17.089
		c-13.172,0-24.776,6.81-31.498,17.089H63.981c-11.32,0-20.529,9.209-20.529,20.529s9.209,20.529,20.529,20.529h171.701
		c6.722,10.278,18.326,17.088,31.498,17.088c13.172,0,24.776-6.81,31.498-17.088h149.34c11.32,0,20.529-9.21,20.529-20.529
		S459.338,398.905,448.019,398.905z M229.963,424.963H63.981c-3.048,0-5.529-2.48-5.529-5.529c0-3.048,2.48-5.529,5.529-5.529
		h165.982c-0.025,0.17-0.034,0.344-0.056,0.515c-0.08,0.6-0.147,1.205-0.198,1.814c-0.021,0.252-0.042,0.504-0.058,0.757
		c-0.052,0.809-0.088,1.622-0.088,2.443s0.036,1.635,0.088,2.443c0.016,0.253,0.037,0.505,0.058,0.757
		c0.051,0.608,0.118,1.212,0.198,1.811C229.93,424.617,229.938,424.792,229.963,424.963z M245.597,426.199
		c-0.008-0.026-0.016-0.051-0.024-0.077c-0.099-0.32-0.191-0.644-0.276-0.97c-0.013-0.051-0.026-0.101-0.039-0.152
		c-0.078-0.309-0.15-0.62-0.216-0.934c-0.016-0.077-0.03-0.154-0.046-0.231c-0.058-0.293-0.112-0.587-0.158-0.883
		c-0.018-0.115-0.032-0.23-0.048-0.345c-0.037-0.264-0.073-0.527-0.101-0.794c-0.019-0.185-0.031-0.371-0.046-0.557
		c-0.016-0.205-0.036-0.408-0.047-0.614c-0.021-0.401-0.033-0.803-0.033-1.208s0.012-0.807,0.033-1.208
		c0.011-0.209,0.031-0.415,0.048-0.622c0.014-0.182,0.027-0.365,0.045-0.547c0.028-0.27,0.065-0.538,0.103-0.805
		c0.016-0.111,0.029-0.223,0.046-0.334c0.047-0.299,0.101-0.596,0.16-0.891c0.015-0.074,0.029-0.148,0.044-0.222
		c0.066-0.316,0.139-0.629,0.218-0.94c0.012-0.048,0.025-0.097,0.037-0.145c0.086-0.328,0.178-0.653,0.278-0.975
		c0.008-0.025,0.016-0.049,0.023-0.073c2.882-9.178,11.468-15.855,21.584-15.855c10.113,0,18.696,6.673,21.581,15.846
		c0.009,0.029,0.019,0.058,0.028,0.087c0.099,0.318,0.189,0.639,0.274,0.963c0.014,0.053,0.027,0.106,0.041,0.159
		c0.078,0.307,0.15,0.616,0.215,0.928c0.016,0.078,0.031,0.157,0.046,0.235c0.058,0.291,0.111,0.585,0.158,0.88
		c0.018,0.115,0.032,0.23,0.048,0.344c0.037,0.264,0.073,0.529,0.101,0.796c0.019,0.183,0.031,0.368,0.046,0.552
		c0.016,0.206,0.036,0.411,0.047,0.618c0.021,0.401,0.033,0.803,0.033,1.208s-0.012,0.807-0.033,1.208
		c-0.011,0.207-0.031,0.412-0.047,0.618c-0.015,0.184-0.027,0.369-0.046,0.552c-0.028,0.268-0.064,0.533-0.102,0.797
		c-0.016,0.114-0.03,0.229-0.048,0.342c-0.047,0.296-0.1,0.591-0.158,0.883c-0.015,0.077-0.03,0.154-0.046,0.231
		c-0.065,0.314-0.138,0.625-0.216,0.934c-0.013,0.05-0.026,0.101-0.039,0.152c-0.085,0.326-0.177,0.651-0.276,0.971
		c-0.008,0.025-0.016,0.05-0.024,0.075c-2.882,9.177-11.468,15.853-21.583,15.853C257.065,442.051,248.48,435.376,245.597,426.199z
		 M448.019,424.963H304.398c0.025-0.171,0.034-0.346,0.057-0.518c0.08-0.6,0.147-1.203,0.198-1.811
		c0.021-0.252,0.042-0.504,0.058-0.757c0.052-0.809,0.088-1.622,0.088-2.443s-0.036-1.634-0.088-2.443
		c-0.016-0.253-0.037-0.505-0.058-0.757c-0.052-0.609-0.118-1.214-0.198-1.814c-0.023-0.171-0.031-0.344-0.056-0.515H448.02
		c3.049,0,5.529,2.481,5.529,5.529C453.547,422.482,451.067,424.963,448.019,424.963z"/>
</g>
<g>
</g>
<g>
</g>
<g>
</g>
<g>
</g>
<g>
</g>
<g>
</g>
<g>
</g>
<g>
</g>
<g>
</g>
<g>
</g>
<g>
</g>
<g>
</g>
<g>
</g>
<g>
</g>
<g>
</g>
</svg>
