<?xml version="1.0" encoding="iso-8859-1"?>
<!-- Generator: Adobe Illustrator 19.0.0, SVG Export Plug-In . SVG Version: 6.00 Build 0)  -->
<svg version="1.1" id="Capa_1" xmlns="http://www.w3.org/2000/svg" xmlns:xlink="http://www.w3.org/1999/xlink" x="0px" y="0px"
	 viewBox="0 0 512 512" style="enable-background:new 0 0 512 512;" xml:space="preserve">
<path style="fill:#ACABB1;" d="M255.996,7.504c-13.14,0-26.04,1.02-38.619,2.99c-35.959,5.61-69.369,18.93-98.478,38.219
	C51.769,93.203,7.5,169.431,7.5,256s44.269,162.797,111.398,207.286c29.109,19.29,62.519,32.609,98.478,38.219
	c12.58,1.97,25.48,2.99,38.619,2.99c137.238,0,248.496-111.258,248.496-248.496S393.233,7.504,255.996,7.504z M416.553,328.329
	c-27.16,60.169-87.188,102.508-157.567,103.698c-1,0.02-1.99,0.03-2.99,0.03c-55.269,0.02-104.768-25.53-137.098-65.599
	c-23.76-29.439-38.239-66.719-38.929-107.468c-0.73-42.899,13.95-82.469,38.929-113.438c31.629-39.229,79.789-64.659,134.108-65.579
	c1-0.02,1.99-0.03,2.99-0.03c71.229-0.02,132.878,42.409,160.537,103.678c9.57,21.2,15.07,44.659,15.49,69.389
	C432.482,279.85,426.903,305.389,416.553,328.329z"/>
<path style="fill:#C6C5CB;" d="M283.025,429.977c-7.85,1.22-15.87,1.91-24.04,2.05c-1,0.02-1.99,0.03-2.99,0.03
	c-55.269,0.02-104.768-25.53-137.098-65.599c-23.76-29.439-38.239-66.719-38.929-107.468c-0.65-38.179,10.91-73.719,31.069-102.908
	c2.49-3.61,5.11-7.12,7.86-10.53c31.629-39.229,79.789-64.659,134.108-65.579c1-0.02,1.99-0.03,2.99-0.03
	c71.229-0.02,132.878,42.409,160.537,103.678C389.183,93.633,312.155,25.284,217.376,10.494
	c-35.959,5.61-69.369,18.93-98.478,38.219C51.769,93.203,7.5,169.431,7.5,256c0,46.269,12.64,89.578,34.669,126.658
	c0.06,0.09,0.11,0.18,0.17,0.28c2.05,3.46,4.19,6.86,6.41,10.2c18.44,27.82,42.329,51.709,70.149,70.149
	c29.109,19.29,62.519,32.609,98.478,38.219c94.788-14.79,171.827-83.169,199.177-173.177
	C392.543,381.518,342.854,420.767,283.025,429.977z"/>
<path style="fill:#D8D8DA;" d="M283.025,429.977c-27.549,21.5-62.219,34.299-99.868,34.299c-55.869,0-105.158-28.2-134.408-71.139
	c-2.26-3.31-4.4-6.72-6.41-10.2c-0.06-0.1-0.11-0.19-0.17-0.28c-13.7-23.83-21.53-51.449-21.53-80.899
	c0-63.859,36.829-119.108,90.398-145.677c-20.16,29.189-31.719,64.729-31.069,102.908c0.69,40.749,15.17,78.029,38.929,107.468
	c32.329,40.069,81.829,65.619,137.098,65.599c1,0,1.99-0.01,2.99-0.03C267.155,431.887,275.175,431.197,283.025,429.977z"/>
<path style="fill:#C60024;" d="M357.484,256c0,56.049-45.439,101.488-101.488,101.488c-9.4,0-18.49-1.28-27.13-3.67
	c-8.94-2.47-17.38-6.14-25.15-10.82c-29.489-17.75-49.209-50.069-49.209-86.998s19.72-69.249,49.209-86.998
	c7.77-4.68,16.21-8.35,25.15-10.82c8.64-2.39,17.73-3.67,27.13-3.67C312.045,154.512,357.484,199.951,357.484,256z"/>
<path style="fill:#FE0B37;" d="M303.255,256c0,46.669-31.499,85.978-74.389,97.818c-8.94-2.47-17.38-6.14-25.15-10.82
	c-29.489-17.75-49.209-50.069-49.209-86.998s19.72-69.249,49.209-86.998c7.77-4.68,16.21-8.35,25.15-10.82
	C271.755,170.022,303.255,209.331,303.255,256z"/>
<g>
	<path style="fill:#020202;" d="M437.012,74.983C389.065,26.232,324.374,0.005,255.996,0.005S123.33,26.632,74.979,74.983
		C26.629,123.334,0,187.621,0,256s26.629,132.666,74.979,181.017c48.351,48.351,112.638,74.979,181.017,74.979
		s132.666-26.629,181.017-74.979c48.351-48.351,74.422-112.64,74.979-181.017C512.542,188.34,488.172,127.002,437.012,74.983z
		 M255.996,496.996C123.11,496.996,15,388.886,15,256S123.11,15.004,255.996,15.004S496.991,123.114,496.991,256
		S388.881,496.996,255.996,496.996z"/>
	<path style="fill:#020202;" d="M439.519,252.879c-1.72-101.193-85.453-182.108-186.643-180.403
		c-101.195,1.72-182.124,85.448-180.404,186.643c1.703,100.138,83.707,180.43,183.478,180.43c1.052,0,2.109-0.009,3.165-0.026
		C360.31,437.803,441.239,354.075,439.519,252.879z M258.86,424.525c-0.975,0.017-1.935,0.024-2.907,0.024
		c-91.61-0.007-166.921-73.736-168.484-165.684c-1.58-92.926,72.736-169.811,165.661-171.391c0.975-0.017,1.935-0.024,2.907-0.024
		c91.61,0,166.921,73.736,168.484,165.685C426.101,346.06,351.786,422.946,258.86,424.525z"/>
</g>
<g>
	<path style="fill:#FFFFFF;" d="M82.977,127.222l-12.014-8.982C41.127,158.146,25.357,205.782,25.357,256
		c0,21.108,2.83,41.998,8.411,62.089l14.453-4.016c-5.218-18.783-7.864-38.321-7.864-58.073
		C40.356,209.044,55.094,164.514,82.977,127.222z"/>
	<path style="fill:#FFFFFF;" d="M419.082,92.913c-13.488-13.488-28.525-25.248-44.695-34.952l-7.719,12.861
		c15.119,9.075,29.186,20.076,41.808,32.698c40.728,40.729,63.159,94.881,63.159,152.479c0,34.933-8.469,69.528-24.491,100.047
		l13.281,6.973c17.146-32.66,26.21-69.668,26.21-107.019C486.634,194.394,462.644,136.475,419.082,92.913z"/>
	<path style="fill:#FFFFFF;" d="M116.207,91.784l-9.743-11.404c-4.444,3.796-8.81,7.818-12.975,11.954l10.569,10.645
		C107.959,99.104,112.046,95.338,116.207,91.784z"/>
	<path style="fill:#FFFFFF;" d="M424.823,390.205l11.724,9.357c3.995-5.006,7.821-10.23,11.371-15.529l-12.461-8.35
		C432.136,380.637,428.559,385.523,424.823,390.205z"/>
</g>
<path style="fill:#020202;" d="M255.996,147.007c-60.099,0-108.992,48.894-108.992,108.992s48.893,108.993,108.992,108.993
	S364.988,316.098,364.988,256S316.094,147.007,255.996,147.007z M255.996,349.992c-51.828,0-93.992-42.165-93.992-93.992
	s42.164-93.993,93.992-93.993s93.992,42.165,93.992,93.992S307.824,349.992,255.996,349.992z"/>
<g>
	<path style="fill:#FFFFFF;" d="M332.067,290.75c2.617-5.707,4.586-11.717,5.851-17.863l-14.691-3.025
		c-1.037,5.036-2.65,9.96-4.794,14.637L332.067,290.75z"/>
	<path style="fill:#FFFFFF;" d="M255.996,324.636c-10.468,0-20.522-2.306-29.881-6.853l-6.555,13.492
		c11.42,5.548,23.679,8.36,36.435,8.36c22.693,0,43.943-8.969,59.836-25.253l-10.734-10.477
		C292.051,317.274,274.613,324.636,255.996,324.636z"/>
	<path style="fill:#FFFFFF;" d="M174.433,237.448l14.627,3.326c1.057-4.648,2.61-9.201,4.618-13.531l-13.609-6.309
		C177.62,226.22,175.724,231.775,174.433,237.448z"/>
	<path style="fill:#FFFFFF;" d="M268.994,188.597l2.834-14.73c-5.187-0.998-10.514-1.504-15.832-1.504
		c-22.931,0-45.122,9.604-60.886,26.348l10.922,10.281c13.131-13.947,30.874-21.629,49.964-21.629
		C260.365,187.363,264.738,187.778,268.994,188.597z"/>
</g>
<g>
</g>
<g>
</g>
<g>
</g>
<g>
</g>
<g>
</g>
<g>
</g>
<g>
</g>
<g>
</g>
<g>
</g>
<g>
</g>
<g>
</g>
<g>
</g>
<g>
</g>
<g>
</g>
<g>
</g>
</svg>
